<mxfile host="app.diagrams.net" modified="2023-08-20T16:04:33.890Z" agent="Mozilla/5.0 (Android 13; Mobile; rv:109.0) Gecko/116.0 Firefox/116.0" etag="Ox6J_DaVR6MasKVUPwCz" version="21.6.8" type="github">
  <diagram name="Seite-1" id="uBLiGHKgIBflKxXMtVZV">
    <mxGraphModel dx="552" dy="145" grid="0" gridSize="10" guides="1" tooltips="1" connect="1" arrows="1" fold="1" page="0" pageScale="1" pageWidth="827" pageHeight="1169" math="0" shadow="0">
      <root>
        <mxCell id="0" />
        <mxCell id="1" parent="0" />
        <mxCell id="np4-04aTfS2IV4d-RBG4-3" style="edgeStyle=none;curved=1;rounded=0;orthogonalLoop=1;jettySize=auto;html=1;fontSize=12;startSize=8;endSize=8;" parent="1" source="np4-04aTfS2IV4d-RBG4-1" target="np4-04aTfS2IV4d-RBG4-2" edge="1">
          <mxGeometry relative="1" as="geometry" />
        </mxCell>
        <mxCell id="np4-04aTfS2IV4d-RBG4-1" value="" style="whiteSpace=wrap;html=1;aspect=fixed;fontSize=16;" parent="1" vertex="1">
          <mxGeometry x="42" y="182" width="80" height="80" as="geometry" />
        </mxCell>
        <mxCell id="np4-04aTfS2IV4d-RBG4-2" value="" style="rounded=0;whiteSpace=wrap;html=1;fontSize=16;" parent="1" vertex="1">
          <mxGeometry x="22" y="290" width="120" height="57" as="geometry" />
        </mxCell>
      </root>
    </mxGraphModel>
  </diagram>
</mxfile>
